<?xml version="1.0" encoding="utf-8"?>
<!-- Generator: Adobe Illustrator 22.0.1, SVG Export Plug-In . SVG Version: 6.00 Build 0)  -->
<svg version="1.1" id="Layer_1" xmlns="http://www.w3.org/2000/svg" xmlns:xlink="http://www.w3.org/1999/xlink" x="0px" y="0px"
	 viewBox="0 0 32 32" style="enable-background:new 0 0 32 32;" xml:space="preserve">
<style type="text/css">
	.st0{fill:#010101;}
	.st1{fill:#F6E7E9;}
</style>
<g>
	<g>
		<path class="st0" d="M307,221v1v8h8h1v39h-1h-8v8v1h-38v-2v-8h-8h-1v-38h1h8v-8v-1H307 M315,213h-54v9h-9v54h9v10h54v-9h9v-55h-9
			V213L315,213z"/>
	</g>
	<g>
		<rect x="292" y="229" class="st0" width="4" height="4"/>
		<path class="st0" d="M276,236h5.3h5.7v6h-2v5h-2v2h4h2v-7h2l-1-4h-1v-2h1v-2h4v7.3l0,3.7h-2v4h2h2v-2h2v-7h2v-2h-4v-2h4v-4h2v-1h1
			v1v4h4v2h-4l1,2h-2v9h2v-2h2v4h-2v2h-6v-2h-1h-2v2h-6v-2h-4h-2.1l0.1,2v4h-2v3.5v2.5h-1v1h-2v2h-8v-2h-2v-3h2v-2h2v-2h2v-2h6v-2
			v-2h-2v2h-6v-3h-2v-6h2v-4h2v-2h2L276,236z M282,239v-1h-4v2h-2v9h4v-2h2V239z M278,257h-2v1h-2v2h-2v4h4v-1h2V257z"/>
	</g>
</g>
<g>
	<rect y="14.8" class="st1" width="2.9" height="2.9"/>
	<rect x="2.9" y="11.9" class="st1" width="2.9" height="2.9"/>
	<rect x="5.8" y="9" class="st1" width="2.9" height="2.9"/>
	<rect x="11.6" y="17.7" class="st1" width="2.9" height="2.9"/>
	<rect x="14.5" y="14.8" class="st1" width="2.9" height="2.9"/>
	<rect x="17.4" y="11.9" class="st1" width="2.9" height="2.9"/>
	<rect x="2.9" y="17.7" class="st1" width="2.9" height="2.9"/>
	<rect x="5.8" y="20.6" class="st1" width="2.9" height="2.9"/>
	<g>
		
			<rect x="28.9" y="14.8" transform="matrix(-1 -4.464885e-11 4.464885e-11 -1 60.7433 32.4627)" class="st1" width="2.9" height="2.9"/>
		
			<rect x="26" y="11.9" transform="matrix(-1 -4.464885e-11 4.464885e-11 -1 54.9582 26.6776)" class="st1" width="2.9" height="2.9"/>
		
			<rect x="23.1" y="9" transform="matrix(-1 -4.496327e-11 4.496327e-11 -1 49.1732 20.8925)" class="st1" width="2.9" height="2.9"/>
		
			<rect x="26" y="17.7" transform="matrix(-1 -4.527768e-11 4.527768e-11 -1 54.9582 38.2478)" class="st1" width="2.9" height="2.9"/>
		
			<rect x="23.1" y="20.6" transform="matrix(-1 -4.464885e-11 4.464885e-11 -1 49.1732 44.0329)" class="st1" width="2.9" height="2.9"/>
	</g>
</g>
</svg>
