<?xml version="1.0" encoding="utf-8"?>
<!-- Generator: Adobe Illustrator 22.0.1, SVG Export Plug-In . SVG Version: 6.00 Build 0)  -->
<svg version="1.1" id="Layer_1" xmlns="http://www.w3.org/2000/svg" xmlns:xlink="http://www.w3.org/1999/xlink" x="0px" y="0px"
	 viewBox="0 0 32 32" style="enable-background:new 0 0 32 32;" xml:space="preserve">
<style type="text/css">
	.st0{fill:#010101;}
	.st1{fill:#F6E7E9;}
</style>
<g>
	<g>
		<path class="st0" d="M307,221v1v8h8h1v39h-1h-8v8v1h-38v-2v-8h-8h-1v-38h1h8v-8v-1H307 M315,213h-54v9h-9v54h9v10h54v-9h9v-55h-9
			V213L315,213z"/>
	</g>
	<g>
		<rect x="292" y="229" class="st0" width="4" height="4"/>
		<path class="st0" d="M276,236h5.3h5.7v6h-2v5h-2v2h4h2v-7h2l-1-4h-1v-2h1v-2h4v7.3l0,3.7h-2v4h2h2v-2h2v-7h2v-2h-4v-2h4v-4h2v-1h1
			v1v4h4v2h-4l1,2h-2v9h2v-2h2v4h-2v2h-6v-2h-1h-2v2h-6v-2h-4h-2.1l0.1,2v4h-2v3.5v2.5h-1v1h-2v2h-8v-2h-2v-3h2v-2h2v-2h2v-2h6v-2
			v-2h-2v2h-6v-3h-2v-6h2v-4h2v-2h2L276,236z M282,239v-1h-4v2h-2v9h4v-2h2V239z M278,257h-2v1h-2v2h-2v4h4v-1h2V257z"/>
	</g>
</g>
<g>
	<path class="st1" d="M24.5,3.6V4v3.6h3.6h0.4V25h-0.4h-3.6v3.6V29h-17v-0.9v-3.6H4H3.6v-17H4h3.6V4V3.6H24.5 M28.1,0H4v4H0v24.1h4
		v4.5h24.1v-4h4V4h-4V0L28.1,0z"/>
	<g>
		<rect x="18.4" y="7.6" class="st1" width="1.6" height="1.6"/>
		<path class="st1" d="M11,10.8h2.5h2.4l0,2.5h-0.8v2.5h-0.8v0.7H16h0.8v-3.2h0.8v-1.6h-0.8v-0.8h0.8V10h1.7v3.2l0,1.6h-0.8v1.7h0.8
			h0.8v-0.8H21v-3.3h0.8v-0.8h-1.7v-0.8h1.7V9.2h0.8V8.4h0.8v0.8v1.7h1.7v0.8h-1.7v0.7h-0.8v4.2h0.8v-0.8h0.8v1.7h-0.8v0.8H21v-0.8
			h-0.8h-0.8v0.8h-2.5v-0.8h-1.6h-0.9l0,0.8V20h-0.8v1.6v0.8h-0.8v0.8h-0.8v0.8H8.6v-0.8H7.7v-1.7h0.8v-0.8h0.8V20h0.8v-0.8h2.5
			v-0.8v-0.8h-0.8v0.8H9.4v-1.7H8.6v-2.5h0.8v-1.7h0.8v-0.8H11L11,10.8z M13.6,12.5v-0.8h-1.7v0.8H11v4.1h1.7v-0.8h0.9V12.5z
			 M11.9,20H11v0.7h-0.8v0.9H9.4v1.7H11v-0.8h0.8V20z"/>
	</g>
</g>
</svg>
