<?xml version="1.0" encoding="utf-8"?>
<!-- Generator: Adobe Illustrator 22.0.1, SVG Export Plug-In . SVG Version: 6.00 Build 0)  -->
<svg version="1.1" id="Layer_1" xmlns="http://www.w3.org/2000/svg" xmlns:xlink="http://www.w3.org/1999/xlink" x="0px" y="0px"
	 viewBox="0 0 32 32" style="enable-background:new 0 0 32 32;" xml:space="preserve">
<style type="text/css">
	.st0{fill:#010101;}
	.st1{fill:#F6E7E9;}
</style>
<g>
	<g>
		<path class="st0" d="M307,221v1v8h8h1v39h-1h-8v8v1h-38v-2v-8h-8h-1v-38h1h8v-8v-1H307 M315,213h-54v9h-9v54h9v10h54v-9h9v-55h-9
			V213L315,213z"/>
	</g>
	<g>
		<rect x="292" y="229" class="st0" width="4" height="4"/>
		<path class="st0" d="M276,236h5.3h5.7v6h-2v5h-2v2h4h2v-7h2l-1-4h-1v-2h1v-2h4v7.3l0,3.7h-2v4h2h2v-2h2v-7h2v-2h-4v-2h4v-4h2v-1h1
			v1v4h4v2h-4l1,2h-2v9h2v-2h2v4h-2v2h-6v-2h-1h-2v2h-6v-2h-4h-2.1l0.1,2v4h-2v3.5v2.5h-1v1h-2v2h-8v-2h-2v-3h2v-2h2v-2h2v-2h6v-2
			v-2h-2v2h-6v-3h-2v-6h2v-4h2v-2h2L276,236z M282,239v-1h-4v2h-2v9h4v-2h2V239z M278,257h-2v1h-2v2h-2v4h4v-1h2V257z"/>
	</g>
</g>
<g>
	<path class="st1" d="M24.4,3.6V4v3.6H28h0.4v17.3H28h-3.6v3.6v0.4H7.6v-0.4v-3.6H4H3.6V7.6H4h3.6V4V3.6H24.4 M28,0H4v4H0v24.4h4v4
		h24v-4h4V4h-4V0L28,0z"/>
	<g>
		<polygon class="st1" points="12.5,9.8 10.9,9.8 10.9,9 10.2,9 10.2,7.5 10.9,7.5 10.9,6.7 12.5,6.7 12.5,7.4 13.3,7.4 13.3,9 
			12.5,9 		"/>
		<polygon class="st1" points="11.7,11.4 9.4,11.4 9.4,12.2 7.8,12.2 7.8,13.7 9.4,13.7 9.4,14.5 9.4,16.1 8.6,16.1 8.6,20 7.8,20 
			7.8,23.1 8.6,23.1 8.6,23.9 11.7,23.9 11.7,23.1 12.5,23.1 12.5,22.4 13.3,22.4 13.3,23.9 15.6,23.9 15.6,23.1 16.4,23.1 16.4,20 
			17.2,20 17.2,16.9 18,16.9 18,15.3 18.8,15.3 18.8,14.5 19.6,14.5 19.6,13.7 21.1,13.7 21.1,15.3 21.1,16.8 20.3,16.8 20.3,20 
			19.5,20 19.5,23.1 20.3,23.1 20.3,23.9 23.5,23.9 23.5,23.1 24.3,23.1 24.3,22.3 25.1,22.3 25.1,21.6 25.8,21.6 25.8,20 25,20 
			25,20.8 24.2,20.8 24.2,21.5 22.7,21.5 22.7,18.4 23.5,18.4 23.5,15.3 24.2,15.3 24.2,12.2 23.4,12.2 23.4,11.4 21.1,11.4 
			21.1,12.2 19.6,12.2 19.6,12.9 18.8,12.9 18.8,13.7 18,13.7 18,11.4 15.7,11.4 15.7,12.2 14.8,12.2 14.8,12.9 14.1,12.9 
			14.1,13.8 15.6,13.8 15.6,15.3 14.8,15.3 14.8,18.4 14.1,18.4 14.1,20.8 13.3,20.8 13.3,21.6 10.9,21.6 10.9,16.9 11.7,16.9 
			11.7,12.9 12.5,12.9 12.5,11.4 		"/>
	</g>
</g>
</svg>
