<?xml version="1.0" encoding="utf-8"?>
<!-- Generator: Adobe Illustrator 22.0.1, SVG Export Plug-In . SVG Version: 6.00 Build 0)  -->
<svg version="1.1" id="Layer_1" xmlns="http://www.w3.org/2000/svg" xmlns:xlink="http://www.w3.org/1999/xlink" x="0px" y="0px"
	 viewBox="0 0 50 32" style="enable-background:new 0 0 50 32;" xml:space="preserve">
<style type="text/css">
	.st0{fill:#F6E7E9;}
</style>
<g>
	<rect x="3.8" y="4.5" class="st0" width="3.8" height="3.8"/>
	<rect x="3.8" y="0.6" class="st0" width="3.8" height="3.8"/>
	<rect y="4.5" class="st0" width="3.8" height="3.8"/>
	<rect y="8.3" class="st0" width="3.8" height="3.8"/>
	<rect y="12.2" class="st0" width="3.8" height="3.8"/>
	<rect y="16" class="st0" width="3.8" height="3.8"/>
	<rect y="19.8" class="st0" width="3.8" height="3.8"/>
	<rect y="23.7" class="st0" width="3.8" height="3.8"/>
	
		<rect x="42.3" y="0.6" transform="matrix(-1 -4.445612e-11 4.445612e-11 -1 88.4615 5.0769)" class="st0" width="3.8" height="3.8"/>
	
		<rect x="46.2" y="4.5" transform="matrix(-1 -4.445612e-11 4.445612e-11 -1 96.1538 12.7692)" class="st0" width="3.8" height="3.8"/>
	
		<rect x="46.2" y="8.3" transform="matrix(-1 -4.421986e-11 4.421986e-11 -1 96.1538 20.4615)" class="st0" width="3.8" height="3.8"/>
	
		<rect x="46.2" y="12.2" transform="matrix(-1 -4.445612e-11 4.445612e-11 -1 96.1538 28.1538)" class="st0" width="3.8" height="3.8"/>
	
		<rect x="46.2" y="16" transform="matrix(-1 -4.492907e-11 4.492907e-11 -1 96.1538 35.8462)" class="st0" width="3.8" height="3.8"/>
	
		<rect x="46.2" y="19.8" transform="matrix(-1 -4.398316e-11 4.398316e-11 -1 96.1538 43.5385)" class="st0" width="3.8" height="3.8"/>
	
		<rect x="46.2" y="23.7" transform="matrix(-1 -4.445612e-11 4.445612e-11 -1 96.1538 51.2308)" class="st0" width="3.8" height="3.8"/>
	<rect x="3.8" y="27.5" class="st0" width="3.8" height="3.8"/>
	<rect x="7.7" y="27.5" class="st0" width="3.8" height="3.8"/>
	<rect x="11.5" y="27.5" class="st0" width="3.8" height="3.8"/>
	<rect x="15" y="27.5" class="st0" width="3.8" height="3.8"/>
	<rect x="18.8" y="27.5" class="st0" width="3.8" height="3.8"/>
	<rect x="22.6" y="27.5" class="st0" width="4.3" height="3.8"/>
	<rect x="26.9" y="27.5" class="st0" width="3.8" height="3.8"/>
	<rect x="30.8" y="27.5" class="st0" width="3.8" height="3.8"/>
	<rect x="34.6" y="27.5" class="st0" width="3.8" height="3.8"/>
	<rect x="38.5" y="27.5" class="st0" width="3.8" height="3.8"/>
	<rect x="42.3" y="27.5" class="st0" width="3.8" height="3.8"/>
	<rect x="3.8" y="0.6" class="st0" width="3.8" height="3.8"/>
	<rect x="7.7" y="0.6" class="st0" width="3.8" height="3.8"/>
	<rect x="11.5" y="0.6" class="st0" width="3.8" height="3.8"/>
	<rect x="15" y="0.6" class="st0" width="3.8" height="3.8"/>
	<rect x="18.8" y="0.6" class="st0" width="3.8" height="3.8"/>
	<rect x="22.6" y="0.6" class="st0" width="4.3" height="3.8"/>
	<rect x="26.9" y="0.6" class="st0" width="3.8" height="3.8"/>
	<rect x="30.8" y="0.6" class="st0" width="3.8" height="3.8"/>
	<rect x="34.6" y="0.6" class="st0" width="3.8" height="3.8"/>
	<rect x="38.5" y="0.6" class="st0" width="3.8" height="3.8"/>
	<rect x="42.3" y="0.6" class="st0" width="3.8" height="3.8"/>
	<rect x="7.7" y="8.3" class="st0" width="3.8" height="3.8"/>
	<rect x="11.5" y="12.2" class="st0" width="3.8" height="3.8"/>
	<rect x="15.4" y="16" class="st0" width="3.8" height="3.8"/>
	<rect x="19.2" y="19.8" class="st0" width="3.8" height="3.8"/>
	<rect x="23.1" y="23.7" class="st0" width="3.8" height="3.8"/>
	
		<rect x="42.3" y="4.5" transform="matrix(-1 4.492883e-11 -4.492883e-11 -1 88.4615 12.7692)" class="st0" width="3.8" height="3.8"/>
	
		<rect x="38.5" y="8.3" transform="matrix(-1 4.469257e-11 -4.469257e-11 -1 80.7692 20.4615)" class="st0" width="3.8" height="3.8"/>
	
		<rect x="34.6" y="12.2" transform="matrix(-1 4.492883e-11 -4.492883e-11 -1 73.0769 28.1538)" class="st0" width="3.8" height="3.8"/>
	
		<rect x="30.8" y="16" transform="matrix(-1 4.540178e-11 -4.540178e-11 -1 65.3846 35.8462)" class="st0" width="3.8" height="3.8"/>
	
		<rect x="26.9" y="19.8" transform="matrix(-1 4.445587e-11 -4.445587e-11 -1 57.6923 43.5385)" class="st0" width="3.8" height="3.8"/>
	<rect x="3.8" y="27.5" class="st0" width="3.8" height="3.8"/>
	<rect x="7.7" y="27.5" class="st0" width="3.8" height="3.8"/>
	<rect x="11.5" y="27.5" class="st0" width="3.8" height="3.8"/>
	<rect x="15" y="27.5" class="st0" width="3.8" height="3.8"/>
	<rect x="18.8" y="27.5" class="st0" width="3.8" height="3.8"/>
	<rect x="22.6" y="27.5" class="st0" width="4.3" height="3.8"/>
	<rect x="26.9" y="27.5" class="st0" width="3.8" height="3.8"/>
	<rect x="30.8" y="27.5" class="st0" width="3.8" height="3.8"/>
	<rect x="34.6" y="27.5" class="st0" width="3.8" height="3.8"/>
	<rect x="38.5" y="27.5" class="st0" width="3.8" height="3.8"/>
	<rect x="42.3" y="27.5" class="st0" width="3.8" height="3.8"/>
</g>
</svg>
