<svg xmlns="http://www.w3.org/2000/svg" viewBox="0 0 918.99 344.14"><defs><style>.cls-1{fill:#ef626c;}.cls-2,.cls-5{fill:#f3f7f0;}.cls-3{fill:#563d31;}.cls-4{fill:#fff;}.cls-5{font-size:109.23px;font-family:YanoneKaffeesatz-Regular, Yanone Kaffeesatz;}.cls-6{letter-spacing:-0.03em;}.cls-7{letter-spacing:-0.01em;}.cls-8{letter-spacing:0em;}</style></defs><title>pixelpuplogo_BEAGLE</title><g id="Layer_15" data-name="Layer 15"><polygon class="cls-1" points="137.47 332.97 137.47 325.04 112.65 325.04 112.65 317.02 96.49 317.02 96.49 309.03 80.75 309.03 80.75 301.07 71.96 301.07 71.96 293.14 63.34 293.14 63.34 285.2 56.41 285.2 56.41 277.14 48.85 277.14 48.85 269.26 40.87 269.26 40.87 261.19 32.9 261.19 32.9 253.22 24.92 253.22 24.92 237.26 16.94 237.26 16.94 229.29 9.72 229.29 9.72 205.37 2 205.37 2 129.59 9.85 129.59 9.85 105.66 17.83 105.66 17.83 97.66 25.49 97.66 25.49 81.67 33.78 81.67 33.78 73.66 41.45 73.66 41.45 65.78 49.82 65.78 49.82 57.81 57.71 57.81 57.71 49.9 64.8 49.9 64.8 41.86 72.77 41.86 72.77 33.82 81.67 33.82 81.67 25.95 97.21 25.95 97.21 17.97 113.67 17.97 113.67 9.87 137.47 9.87 137.47 2 203.43 2 203.43 9.87 227.23 9.87 227.23 17.97 243.69 17.97 243.69 25.95 259.23 25.95 259.23 33.82 268.13 33.82 268.13 41.86 276.1 41.86 276.1 49.9 283.19 49.9 283.19 57.81 291.08 57.81 291.08 65.78 299.45 65.78 299.45 73.66 307.12 73.66 307.12 81.67 315.4 81.67 315.4 97.66 323.07 97.66 323.07 105.66 331.04 105.66 331.04 129.59 338.9 129.59 338.9 205.37 331.18 205.37 331.18 229.29 323.95 229.29 323.95 237.26 315.98 237.26 315.98 253.22 308 253.22 308 261.19 300.03 261.19 300.03 269.26 292.05 269.26 292.05 277.14 284.49 277.14 284.49 285.2 277.56 285.2 277.56 293.14 268.94 293.14 268.94 301.07 260.15 301.07 260.15 309.03 244.41 309.03 244.41 317.02 228.25 317.02 228.25 325.04 203.43 325.04 203.43 332.97 137.47 332.97"/><path class="cls-2" d="M219.52,104.71v7.87h23.8v8.1h16.46v8h15.54v7.87h8.89v8h8v8.05h7.09v7.9h7.89v8h8.37v7.87h7.67v8h8.28v16h7.67v8h8V232.3H355v71.78h-7.72V328H340v8h-8v15.95h-8v8h-8V368h-8v7.88h-7.56v8.06h-6.93v7.94H285v7.93h-8.79v8H260.5v8H244.34v8H219.52v7.93h-62v-7.93H132.74v-8H116.58v-8H100.84v-8H92.05v-7.93H83.43v-7.94H76.49v-8.06H68.94V368H61V359.9H53v-8H45V336H37v-8H29.81V304.08H22.09V232.3h7.85V208.37h8v-8h7.66v-16h8.29v-8h7.67v-7.87h8.37v-8H77.8v-7.9h7.09v-8.05h8v-8h8.9v-7.87H117.3v-8h16.46v-8.1h23.8v-7.87h62m4-4h-70v7.87h-23.8v8.1H113.3v8H97.76v7.87h-8.9v8h-8v8.05H73.8v7.9H65.91v8H57.54v7.87H49.87v8H41.58v16H33.92v8h-8V228.3H18.09v79.78h7.72V332H33v8h8v15.95h8v8h8V372h8v7.88h7.55v8.06h6.94v7.94h8.62v7.93h8.79v8h15.74v8h16.16v8h24.82v7.93h70v-7.93h24.82v-8H264.5v-8h15.74v-8H289v-7.93h8.62v-7.94h6.93v-8.06h7.56V372h8V363.9h8v-8h8V340h8v-8h7.23V308.08H359V228.3h-7.86V204.37h-8v-8h-7.67v-16h-8.28v-8h-7.67v-7.87h-8.37v-8h-7.89v-7.9h-7.09v-8.05h-8v-8h-8.89v-7.87H263.78v-8H247.32v-8.1h-23.8v-7.87Z" transform="translate(-18.09 -100.71)"/><polygon class="cls-1" points="147.48 282.26 147.48 276.76 130.29 276.76 130.29 271.2 119.09 271.2 119.09 265.67 108.19 265.67 108.19 260.15 102.1 260.15 102.1 254.66 96.12 254.66 96.12 249.16 91.32 249.16 91.32 243.57 86.08 243.57 86.08 238.12 80.56 238.12 80.56 232.52 75.03 232.52 75.03 227 69.51 227 69.51 215.95 63.98 215.95 63.98 210.42 58.97 210.42 58.97 193.85 53.63 193.85 53.63 141.12 59.07 141.12 59.07 124.54 64.59 124.54 64.59 118.99 69.9 118.99 69.9 107.92 75.65 107.92 75.65 102.36 80.96 102.36 80.96 96.91 86.76 96.91 86.76 91.38 92.22 91.38 92.22 85.9 97.14 85.9 97.14 80.33 102.66 80.33 102.66 74.77 108.82 74.77 108.82 69.31 119.59 69.31 119.59 63.78 130.99 63.78 130.99 58.17 147.48 58.17 147.48 52.72 193.42 52.72 193.42 58.17 209.91 58.17 209.91 63.78 221.31 63.78 221.31 69.31 232.07 69.31 232.07 74.77 238.24 74.77 238.24 80.33 243.76 80.33 243.76 85.9 248.68 85.9 248.68 91.38 254.14 91.38 254.14 96.91 259.94 96.91 259.94 102.36 265.25 102.36 265.25 107.92 270.99 107.92 270.99 118.99 276.3 118.99 276.3 124.54 281.83 124.54 281.83 141.12 287.27 141.12 287.27 193.85 281.93 193.85 281.93 210.42 276.92 210.42 276.92 215.95 271.39 215.95 271.39 227 265.87 227 265.87 232.52 260.34 232.52 260.34 238.12 254.81 238.12 254.81 243.57 249.58 243.57 249.58 249.16 244.78 249.16 244.78 254.66 238.8 254.66 238.8 260.15 232.71 260.15 232.71 265.67 221.81 265.67 221.81 271.2 210.61 271.2 210.61 276.76 193.42 276.76 193.42 282.26 147.48 282.26"/><path class="cls-2" d="M210,154.92v5.46h16.48V166H237.9v5.53h10.76V177h6.17v5.57h5.52v5.57h4.91v5.48h5.47v5.52h5.8v5.46h5.31v5.55h5.74V221.2h5.31v5.54h5.53v16.58h5.44v49.73h-5.35v16.58h-5v5.52H288V326.2h-5.52v5.53h-5.53v5.59H271.4v5.46h-5.23v5.58h-4.8v5.51h-6v5.49H249.3v5.51H238.4v5.54H227.2V376H210v5.49H167.07V376H149.88v-5.56h-11.2v-5.54h-10.9v-5.51h-6.09v-5.49h-6v-5.51h-4.8v-5.58h-5.24v-5.46h-5.52v-5.59H94.62V326.2H89.1V315.15H83.57v-5.52h-5V293.05H73.22V243.32h5.44V226.74h5.52V221.2h5.31V210.12h5.75v-5.55h5.31v-5.46h5.8v-5.52h5.46v-5.48h4.92v-5.57h5.52V177h6.16v-5.45h10.77V166h11.4v-5.61h16.49v-5.46H210m3-3H164.07v5.46H147.58V163h-11.4v5.53H125.41V174h-6.16v5.57h-5.52v5.57h-4.92v5.48h-5.46v5.52h-5.8v5.46H92.24v5.55H86.49V218.2H81.18v5.54H75.66v16.58H70.22v55.73h5.34v16.58h5v5.52H86.1V329.2h5.52v5.53h5.53v5.59h5.52v5.46h5.24v5.58h4.8v5.51h6v5.49h6.09v5.51h10.9v5.54h11.2V379h17.19v5.49H213V379H230.2v-5.56h11.2v-5.54h10.9v-5.51h6.09v-5.49h6v-5.51h4.8v-5.58h5.23v-5.46h5.53v-5.59h5.53V329.2H291V318.15h5.53v-5.52h5V296.05h5.35V240.32h-5.44V223.74h-5.53V218.2h-5.31V207.12h-5.74v-5.55h-5.31v-5.46h-5.8v-5.52h-5.47v-5.48h-4.91v-5.57h-5.52V174h-6.17v-5.45H240.9V163H229.49v-5.61H213v-5.46Z" transform="translate(-18.09 -100.71)"/><rect class="cls-2" x="155.99" y="18.46" width="28.91" height="9.6"/><rect class="cls-2" x="179.91" y="24.35" width="9.6" height="9.6"/><rect class="cls-2" x="179.91" y="12.58" width="9.6" height="9.6"/><rect class="cls-2" x="151.8" y="24.35" width="9.6" height="9.6"/><rect class="cls-2" x="151.8" y="12.58" width="9.6" height="9.6"/><rect class="cls-2" x="197.15" y="35.14" width="15.92" height="5.29"/><rect class="cls-2" x="210.32" y="38.38" width="5.29" height="5.29"/><rect class="cls-2" x="210.32" y="31.9" width="5.29" height="5.29"/><rect class="cls-2" x="194.84" y="38.38" width="5.29" height="5.29"/><rect class="cls-2" x="194.84" y="31.9" width="5.29" height="5.29"/><rect class="cls-2" x="127.25" y="35.14" width="15.92" height="5.29"/><rect class="cls-2" x="140.42" y="38.38" width="5.29" height="5.29"/><rect class="cls-2" x="140.42" y="31.9" width="5.29" height="5.29"/><rect class="cls-2" x="124.94" y="38.38" width="5.29" height="5.29"/><rect class="cls-2" x="124.94" y="31.9" width="5.29" height="5.29"/><rect class="cls-2" x="155.99" y="305.92" width="28.91" height="9.6"/><rect class="cls-2" x="179.91" y="300.03" width="9.6" height="9.6"/><rect class="cls-2" x="179.91" y="311.8" width="9.6" height="9.6"/><rect class="cls-2" x="151.8" y="300.03" width="9.6" height="9.6"/><rect class="cls-2" x="151.8" y="311.8" width="9.6" height="9.6"/><rect class="cls-2" x="197.15" y="293.55" width="15.92" height="5.29"/><rect class="cls-2" x="210.32" y="290.32" width="5.29" height="5.29"/><rect class="cls-2" x="210.32" y="296.79" width="5.29" height="5.29"/><rect class="cls-2" x="194.84" y="290.32" width="5.29" height="5.29"/><rect class="cls-2" x="194.84" y="296.79" width="5.29" height="5.29"/><rect class="cls-2" x="127.25" y="293.55" width="15.92" height="5.29"/><rect class="cls-2" x="140.42" y="290.32" width="5.29" height="5.29"/><rect class="cls-2" x="140.42" y="296.79" width="5.29" height="5.29"/><rect class="cls-2" x="124.94" y="290.32" width="5.29" height="5.29"/><rect class="cls-2" x="124.94" y="296.79" width="5.29" height="5.29"/><rect class="cls-2" x="29.09" y="264.11" width="28.91" height="9.6" transform="translate(-243.46 211.75) rotate(-90)"/><rect class="cls-2" x="44.62" y="249.85" width="9.6" height="9.6" transform="translate(-223.32 203.37) rotate(-90)"/><rect class="cls-2" x="32.86" y="249.85" width="9.6" height="9.6" transform="translate(-235.08 191.61) rotate(-90)"/><rect class="cls-2" x="44.62" y="277.97" width="9.6" height="9.6" transform="translate(-251.43 231.49) rotate(-90)"/><rect class="cls-2" x="32.86" y="277.97" width="9.6" height="9.6" transform="translate(-263.2 219.72) rotate(-90)"/><rect class="cls-2" x="50.1" y="231.61" width="15.92" height="5.29" transform="translate(-194.28 191.61) rotate(-90)"/><rect class="cls-2" x="58.66" y="223.76" width="5.29" height="5.29" transform="translate(-183.19 186.99) rotate(-90)"/><rect class="cls-2" x="52.18" y="223.76" width="5.29" height="5.29" transform="translate(-189.67 180.52) rotate(-90)"/><rect class="cls-2" x="58.66" y="239.24" width="5.29" height="5.29" transform="translate(-198.67 202.47) rotate(-90)"/><rect class="cls-2" x="52.18" y="239.24" width="5.29" height="5.29" transform="translate(-205.15 196) rotate(-90)"/><rect class="cls-2" x="50.1" y="301.51" width="15.92" height="5.29" transform="translate(-264.18 261.51) rotate(-90)"/><rect class="cls-2" x="58.66" y="293.66" width="5.29" height="5.29" transform="translate(-253.09 256.89) rotate(-90)"/><rect class="cls-2" x="52.18" y="293.66" width="5.29" height="5.29" transform="translate(-259.57 250.42) rotate(-90)"/><rect class="cls-2" x="58.66" y="309.14" width="5.29" height="5.29" transform="translate(-268.57 272.37) rotate(-90)"/><rect class="cls-2" x="52.18" y="309.14" width="5.29" height="5.29" transform="translate(-275.05 265.9) rotate(-90)"/><rect class="cls-2" x="316.54" y="264.11" width="28.91" height="9.6" transform="translate(43.99 499.2) rotate(-90)"/><rect class="cls-2" x="320.31" y="249.85" width="9.6" height="9.6" transform="translate(52.37 479.06) rotate(-90)"/><rect class="cls-2" x="332.08" y="249.85" width="9.6" height="9.6" transform="translate(64.13 490.82) rotate(-90)"/><rect class="cls-2" x="320.31" y="277.97" width="9.6" height="9.6" transform="translate(24.25 507.17) rotate(-90)"/><rect class="cls-2" x="332.08" y="277.97" width="9.6" height="9.6" transform="translate(36.02 518.94) rotate(-90)"/><rect class="cls-2" x="308.51" y="231.61" width="15.92" height="5.29" transform="translate(64.13 450.02) rotate(-90)"/><rect class="cls-2" x="310.59" y="223.76" width="5.29" height="5.29" transform="translate(68.75 438.93) rotate(-90)"/><rect class="cls-2" x="317.07" y="223.76" width="5.29" height="5.29" transform="translate(75.22 445.41) rotate(-90)"/><rect class="cls-2" x="310.59" y="239.24" width="5.29" height="5.29" transform="translate(53.27 454.41) rotate(-90)"/><rect class="cls-2" x="317.07" y="239.24" width="5.29" height="5.29" transform="translate(59.74 460.89) rotate(-90)"/><rect class="cls-2" x="308.51" y="301.51" width="15.92" height="5.29" transform="translate(-5.77 519.92) rotate(-90)"/><rect class="cls-2" x="310.59" y="293.66" width="5.29" height="5.29" transform="translate(-1.16 508.83) rotate(-90)"/><rect class="cls-2" x="317.07" y="293.66" width="5.29" height="5.29" transform="translate(5.32 515.31) rotate(-90)"/><rect class="cls-2" x="310.59" y="309.14" width="5.29" height="5.29" transform="translate(-16.63 524.31) rotate(-90)"/><rect class="cls-2" x="317.07" y="309.14" width="5.29" height="5.29" transform="translate(-10.16 530.79) rotate(-90)"/><polygon class="cls-2" points="100.58 119.25 100 117.49 112.25 113.49 112.83 115.24 119.82 112.95 120.39 114.7 123.89 113.56 124.47 115.31 126.21 114.74 126.78 116.49 128.53 115.91 130.25 121.17 132 120.6 134.28 127.59 132.53 128.16 134.24 133.42 132.5 133.99 133.64 137.49 131.89 138.06 133.03 141.55 131.28 142.12 131.85 143.88 130.11 144.45 130.68 146.19 127.19 147.34 127.76 149.09 124.26 150.23 124.83 151.98 116.08 154.84 116.65 156.59 114.9 157.16 117.18 164.16 115.44 164.73 118.3 173.47 116.54 174.04 117.69 177.54 115.94 178.12 117.08 181.61 113.58 182.75 114.15 184.51 110.66 185.65 111.23 187.4 107.73 188.54 105.44 181.54 107.19 180.96 104.34 172.22 106.08 171.65 102.65 161.15 104.4 160.58 102.11 153.58 103.86 153.01 100.44 142.52 102.19 141.94 99.91 134.95 101.66 134.38 99.94 129.13 101.68 128.56 101.11 126.81 111.61 123.38 113.33 128.63 111.57 129.21 113.86 136.2 112.11 136.76 115.55 147.27 113.8 147.84 114.37 149.59 117.87 148.45 117.29 146.69 119.03 146.12 118.46 144.37 120.21 143.8 119.64 142.05 121.39 141.48 120.25 137.98 122 137.41 120.28 132.16 122.03 131.59 120.32 126.35 118.57 126.92 116.85 121.67 113.36 122.81 112.78 121.06 98.8 125.63 99.37 127.39 97.61 127.96 98.19 129.71 96.44 130.28 97.02 132.03 95.27 132.6 96.41 136.1 94.65 136.67 96.65 142.79 98.41 142.21 98.98 143.97 97.22 144.54 97.51 145.42 92.26 147.13 91.69 145.38 88.19 146.52 87.62 144.78 85.87 145.35 82.44 134.84 84.19 134.27 83.62 132.52 85.37 131.95 84.8 130.2 86.55 129.63 85.97 127.88 89.47 126.74 88.9 124.99 92.4 123.85 91.83 122.1 100.58 119.25"/><polygon class="cls-2" points="121.63 183.68 121.05 181.92 133.3 177.92 133.88 179.67 140.87 177.38 141.44 179.13 144.94 177.99 145.51 179.74 147.26 179.17 147.83 180.92 149.58 180.34 151.3 185.6 153.05 185.03 155.33 192.02 153.58 192.59 155.29 197.85 153.54 198.42 154.69 201.92 152.94 202.49 154.08 205.98 152.33 206.55 152.9 208.31 151.16 208.88 151.73 210.63 148.23 211.77 148.81 213.52 145.31 214.66 145.88 216.41 137.12 219.27 137.69 221.02 135.95 221.59 138.23 228.59 136.49 229.16 139.34 237.9 137.59 238.47 138.73 241.97 136.98 242.55 138.13 246.04 134.63 247.18 135.2 248.94 131.71 250.08 132.28 251.83 128.78 252.97 126.49 245.97 128.24 245.39 125.39 236.65 127.13 236.08 123.7 225.58 125.45 225.01 123.16 218.01 124.91 217.44 121.48 206.95 123.24 206.37 120.95 199.38 122.7 198.81 120.99 193.56 122.73 192.99 122.16 191.24 132.66 187.81 134.38 193.06 132.62 193.64 134.91 200.63 133.16 201.2 136.59 211.7 134.85 212.27 135.42 214.02 138.92 212.88 138.34 211.12 140.08 210.55 139.51 208.8 141.26 208.23 140.69 206.48 142.44 205.91 141.3 202.41 143.04 201.84 141.33 196.59 143.08 196.02 141.37 190.78 139.62 191.35 137.9 186.1 134.4 187.24 133.83 185.49 119.85 190.06 120.42 191.82 118.66 192.39 119.23 194.14 117.49 194.71 118.06 196.46 116.31 197.03 117.46 200.53 115.7 201.1 117.7 207.22 119.46 206.64 120.03 208.4 118.27 208.97 118.56 209.85 113.31 211.56 112.74 209.81 109.24 210.95 108.67 209.21 106.92 209.78 103.49 199.27 105.24 198.7 104.67 196.95 106.42 196.38 105.84 194.63 107.59 194.06 107.02 192.31 110.52 191.17 109.95 189.42 113.45 188.28 112.88 186.53 121.63 183.68"/><polygon class="cls-2" points="138.38 122.38 136.63 122.95 134.35 115.95 136.09 115.38 135.53 113.64 137.28 113.07 136.7 111.31 141.96 109.59 142.53 111.35 144.28 110.78 144.85 112.53 146.6 111.96 148.88 118.95 147.13 119.52 147.7 121.28 145.96 121.85 146.53 123.59 141.28 125.31 140.7 123.56 138.95 124.13 138.38 122.38"/><path class="cls-2" d="M164.78,227.79l1.76-.57,1.14,3.49-1.75.57,4,12.26-1.75.57,2.28,7-1.75.57,2.29,7,1.74-.57.57,1.75,3.5-1.14-.57-1.76,1.75-.57-.57-1.74,1.75-.57-.57-1.75,1.74-.57-.57-1.75,1.75-.57-.57-1.75,1.75-.57-.57-1.76,1.75-.57-1.62-4.95-1.74.57-2.86-8.75-5.26,1.72.48,1.46-3.5,1.14-1.62-5,1.75-.57-.57-1.75,1.75-.57-.57-1.75,1.75-.58-.58-1.74,10.51-3.44.57,1.75,1.75-.57,1.14,3.5,1.75-.57,2.29,7,1.74-.57-.57-1.74,1.75-.58-1.14-3.49,1.74-.58-1.14-3.49L186.45,223l-1.72-5.26,1.75-.57-.57-1.74,1.75-.57-.58-1.76,8.76-2.86.57,1.75,1.74-.57,1.14,3.5,1.76-.57,1.71,5.25-1.75.57,1.15,3.5-1.75.58,1.14,3.49-1.75.57.57,1.75-1.75.57.58,1.75-1.75.58.57,1.75-1.75.57.57,1.75-1.75.57,4,12.24,7-2.28L202.65,237l1.75-.58-1.71-5.24,1.75-.57-1.15-3.5,1.75-.57-1.14-3.5,1.75-.57-.57-1.75,1.75-.57-.57-1.75,1.75-.57-.58-1.75,1.75-.57-.57-1.75,1.75-.57-.57-1.76,14-4.57.57,1.75,1.74-.57,1.15,3.5L229,211l2.29,7-1.75.57,1.14,3.49-1.75.57,1.15,3.51-1.75.57.57,1.74-1.75.57.57,1.75-3.5,1.15.57,1.74-1.75.58.57,1.75-3.49,1.14.57,1.76-1.76.57,1.14,3.49,1.76-.57.57,1.75,5.25-1.71-.57-1.75,5.25-1.72-.57-1.74,3.49-1.14-.57-1.75,1.75-.58-4.58-14,1.75-.57-2.85-8.74,1.75-.57-1.72-5.25,1.75-.58-1.72-5.24,1.75-.57-1.14-3.5,1.75-.57-.57-1.75,1.75-.57-.57-1.75,1.75-.57-.57-1.75,1.74-.57-.57-1.76,8.75-2.85.57,1.75,1.76-.58.57,1.75,1.75-.57,3.43,10.5-1.75.57,1.71,5.25-1.75.57,1.15,3.5-1.75.57,1.14,3.49L250,210l1.14,3.5-1.75.57,1.15,3.5-1.75.57.57,1.75-1.75.57,1.14,3.5-1.75.57,1.15,3.5-1.76.58,1.71,5.24,3.5-1.14-1.14-3.5,3.5-1.15.57,1.75,1.75-.57,1.72,5.25-1.75.57,1.14,3.5-1.74.57.56,1.75L252.68,242l.57,1.76-8.75,2.85-.57-1.75-1.75.58-.58-1.75-1.74.57-.57-1.75-3.5,1.14.57,1.75-3.5,1.14.57,1.74-3.49,1.15.57,1.75-12.25,4-.57-1.75-1.75.57-.57-1.75-1.75.57-.58-1.75-3.49,1.14.57,1.75-1.74.57.57,1.75L203.7,258l.51,1.57-7,2.29-.52-1.58-1.75.57-.57-1.74-1.74.57-1.14-3.5-1.76.57-1.14-3.5-1.74.57.57,1.75-1.75.57.57,1.75-1.75.57.57,1.75-1.75.57.57,1.75-1.75.57.57,1.75-5.24,1.71.57,1.76-10.5,3.43L167,270l-1.74.57-.58-1.75-1.75.57-.57-1.75-1.75.58-2.86-8.76,1.75-.57-1.72-5.24,1.75-.57-3.42-10.5,1.75-.57-.57-1.75-3.51,1.15L152,236.15l1.75-.57-.57-1.75,1.75-.57-.57-1.75,2-.66-.58-1.76,8.47-2.76Zm52.54,5.75-.57-1.75,1.75-.57-.58-1.75,1.75-.58-.57-1.75,1.75-.57-.57-1.75,1.75-.57-.57-1.75,1.75-.57-1.72-5.25L218,217.82l.57,1.75-1.75.58.58,1.75-1.75.57.62,1.9-1.75.57,1.66,5.1-1.75.58,1.14,3.49Zm26.12-35.63-1.75.57,1.71,5.25-1.75.57,2.29,7,1.75-.58L244,205.48l1.75-.58L244,199.66l1.74-.57-2.29-7-1.74.57Z" transform="translate(-18.09 -100.71)"/><path class="cls-2" d="M190.48,294.58l-1.75.57,2.86,8.75-1.75.57,2.29,7-1.75.57,2.85,8.74,3.49-1.14-.56-1.75,1.74-.57-.57-1.75,1.75-.57-2.86-8.75,1.75-.57-2.28-7,1.75-.57-2.29-7,1.75-.57-.57-1.75,1.75-.57-.57-1.76,8.75-2.86,4,12.25-1.75.57,2.86,8.74-1.75.57,2.29,7-1.75.57,1.14,3.5,5.24-1.71-1.71-5.25,1.74-.57-2.28-7,1.75-.57-2.29-7,1.75-.57-.57-1.75-3.5,1.14-1.71-5.24,1.75-.58L210.9,286l1.74-.58-.57-1.74,3.5-1.15-.57-1.75,7-2.29.57,1.75,1.75-.58.58,1.76,1.74-.57-.58-1.75,3.5-1.15-.57-1.75,8.75-2.85.57,1.75,1.76-.58.57,1.75,1.75-.57.57,1.75,1.74-.57,1.14,3.5,1.77-.58,2.29,7-1.76.57L251,296.1l-1.75.57,1.72,5.26-1.75.57.57,1.75-1.75.57.58,1.75-1.75.57.57,1.75-1.75.57.57,1.75-1.75.57.57,1.75-3.5,1.14.57,1.75-3.49,1.14.57,1.75-8.75,2.86.57,1.75-1.75.57,2.29,7-1.75.57,2.86,8.75-1.75.57,1.14,3.49-1.75.57,1.14,3.51L228,350.09l.57,1.75L225,353l.57,1.75-3.5,1.15-2.28-7,1.75-.57-2.86-8.74,1.75-.57L217,328.49l1.76-.57-1.05-3.21-1.75.57.57,1.75-8.74,2.86-.57-1.75-1.76.58-.57-1.75-1.74.57L202,324l-1.75.57.57,1.76-1.74.57.56,1.74-1.74.57.57,1.75-1.75.57.57,1.76-8.74,2.86-.58-1.75-1.75.57-.57-1.75-1.75.57-.58-1.75-1.74.58-2.86-8.76,1.75-.57-1.71-5.25,1.74-.57L177.11,307l1.76-.57-.57-1.75-3.51,1.15-1.71-5.26,1.75-.57-.57-1.74,2-.67-.57-1.75,1.45-.47-.67-2.05,12.26-4,.57,1.75Zm43.25,16.84-.48-1.46,3.5-1.14-.57-1.74,1.75-.58-1.14-3.5,1.75-.57-1.15-3.5,1.75-.57-2.38-7.29-1.75.57-1.62-5-5.24,1.72.58,1.75-1.76.58.57,1.74-1.76.57,4,12.25-1.75.57,2.19,6.7Z" transform="translate(-18.09 -100.71)"/></g><g id="Layer_20" data-name="Layer 20"><polygon points="342.54 238.03 362.38 238.03 362.38 232.47 367.94 232.47 367.94 227.53 362.22 227.53 362.22 221.97 368.71 221.97 374.58 221.97 374.58 239.73 369.02 239.73 369.02 246.06 363.46 246.06 363.46 274.95 348.4 274.95 348.4 285.29 342.68 285.29 342.68 267.99 337.28 267.99 337.28 262.74 331.56 262.74 331.56 256.59 337.46 256.59 337.46 245.59 342.54 245.59 342.54 238.03"/><polygon class="cls-3" points="263.21 198.56 263.21 204.3 254.62 204.3 254.62 209.69 249.23 209.69 249.23 212.48 246.54 212.48 246.54 218.59 240.84 218.59 240.84 223.87 235.46 223.87 235.46 234.85 238.26 234.85 238.26 245.93 243.54 245.93 243.54 251.94 246.35 251.94 246.35 256.91 253.07 256.91 253.07 251.42 249.31 251.42 249.31 220.68 253.6 220.68 253.6 232.47 260.14 232.47 260.14 227.07 264.78 227.07 264.78 198.56 274.38 198.56 274.38 194.81 263.09 194.81 263.21 198.56"/><polygon class="cls-3" points="287.47 194.81 287.47 200.52 279.91 200.52 279.91 211.15 274.35 211.15 274.35 222.28 279.75 222.28 279.75 233.4 285.31 233.4 285.31 239.26 290.33 239.26 290.33 250.64 299.45 250.64 299.45 212.46 305.54 212.46 305.54 255.3 310.06 255.3 310.06 266.76 321.53 266.76 321.53 261.73 326.96 261.73 326.96 252.18 332.69 252.18 332.69 241.02 338.42 241.02 338.42 229.75 332.59 229.75 332.59 223.82 330.08 223.82 330.08 218.39 324.14 218.39 324.14 213.06 318.71 213.06 318.71 207.43 307.45 207.43 307.45 201.6 296.13 201.6 296.13 194.81 287.47 194.81"/><path class="cls-3" d="M375.36,322.69" transform="translate(-18.09 -100.71)"/><rect class="cls-4" x="357.27" y="216.56" width="11.44" height="5.41"/><polyline class="cls-4" points="274.03 254.4 263.07 254.4 263.07 260.27 268.79 260.27 268.79 277.26 274.35 277.26 274.35 288.54 268.79 288.54 268.79 327.46 263.23 327.46 263.23 338.42 279.75 338.42 279.75 305.06 274.5 305.06 274.5 299.5 280.22 299.5 280.22 305.06 285.47 305.06 285.47 310.62 307.55 310.62 307.55 299.35 313.27 299.35 313.27 327.46 307.71 327.46 307.71 338.42 324.23 338.42 324.23 293.99 329.94 293.99 329.94 302.48 335.65 302.48 335.65 296.85 358.52 296.85 358.52 302.46 364.24 302.46 364.24 308.18 369.96 308.18 364.24 325.34 364.24 331.06 364.24 336.77 374.59 336.77 374.59 296.74 368.87 296.74 368.87 279.58 353.96 279.58 353.96 290.39 342.68 290.39 342.68 284.67 337.12 284.67 337.12 267.83 326.4 267.83 326.4 272.75 304.4 272.75 304.4 260.31 299.37 260.31 291.18 260.31 291.18 265.84 279.75 265.84 279.75 260.12 274.03 260.12 274.03 254.4 263.07 254.4"/><polygon points="296.13 189.99 268.76 189.99 268.76 194 258.4 194 258.4 199.68 250.05 199.68 250.05 205.53 243.93 205.53 243.93 208.5 241.19 208.5 241.19 214.29 235.67 214.29 235.67 219.71 230.34 219.71 230.34 237.74 233.4 237.74 233.4 248.69 238.71 248.69 238.71 254.43 241.62 254.43 241.62 260.06 257.42 260.06 257.42 248.91 253.6 248.6 253.6 220.68 249.31 220.68 249.31 251.42 253.07 251.42 253.07 256.91 246.35 256.91 246.35 251.94 243.54 251.94 243.54 245.93 238.26 245.93 238.26 234.85 235.46 234.85 235.46 223.87 240.84 223.87 240.84 218.59 246.54 218.59 246.54 212.48 249.23 212.48 249.23 209.69 254.62 209.69 254.62 204.3 263.21 204.3 263.21 198.56 274.38 198.56 274.38 194.81 296.13 194.81 296.13 201.6 307.45 201.6 307.45 207.43 318.71 207.43 318.71 213.06 324.14 213.06 324.14 218.39 330.08 218.39 330.08 223.82 332.59 223.82 332.59 229.75 338.42 229.75 338.42 241.02 332.69 241.02 332.69 252.18 326.96 252.18 326.96 261.73 321.53 261.73 321.53 266.76 310.06 266.76 310.06 255.3 305.54 255.3 305.54 212.46 299.45 212.46 299.14 260.31 304.4 260.31 304.4 272.75 326.4 272.75 326.4 267.62 331.74 267.62 331.74 256.86 337.46 256.86 337.46 245.8 342.79 245.8 342.79 225.31 337.46 225.31 337.46 220.08 334.34 220.08 334.34 214.35 329.11 214.35 329.11 208.72 323.38 208.72 323.38 203.18 312.22 203.18 312.22 197.65 301.26 197.65 301.26 189.99 296.13 189.99"/><rect x="260.29" y="232.47" width="5.72" height="5.72"/><rect x="265.85" y="232.47" width="5.72" height="5.72"/><rect x="265.85" y="238.03" width="5.72" height="5.72"/><rect x="260.29" y="238.03" width="5.72" height="5.72"/><rect x="281.91" y="215.79" width="5.72" height="5.72"/><rect x="287.47" y="215.79" width="5.72" height="5.72"/><rect x="287.47" y="221.35" width="5.72" height="5.72"/><rect x="281.91" y="221.35" width="5.72" height="5.72"/><rect x="253.5" y="215.79" width="5.72" height="5.72"/><rect x="259.06" y="215.79" width="5.72" height="5.72"/><rect x="259.06" y="221.35" width="5.72" height="5.72"/><rect x="253.5" y="221.35" width="5.72" height="5.72"/><rect x="263.07" y="243.59" width="5.72" height="5.72"/><rect x="262.99" y="248.68" width="5.72" height="5.72"/><rect x="257.35" y="254.4" width="5.72" height="5.72"/><rect x="263.07" y="260.27" width="5.72" height="5.72"/><rect x="263.07" y="265.83" width="5.72" height="5.72"/><rect x="263.07" y="271.39" width="5.72" height="5.72"/><rect x="268.63" y="277.26" width="5.72" height="5.72"/><rect x="342.68" y="238.03" width="5.72" height="5.72"/><rect x="331.56" y="262.21" width="5.72" height="5.72"/><rect x="337.12" y="267.83" width="5.72" height="5.72"/><rect x="337.12" y="273.55" width="5.72" height="5.72"/><rect x="337.12" y="279.11" width="5.72" height="5.72"/><rect x="342.68" y="284.67" width="5.72" height="5.72"/><rect x="348.24" y="284.67" width="5.72" height="5.72"/><rect x="348.24" y="279.11" width="5.72" height="5.72"/><rect x="348.24" y="273.86" width="5.72" height="5.72"/><rect x="353.8" y="273.86" width="5.72" height="5.72"/><rect x="359.36" y="273.86" width="5.72" height="5.72"/><rect x="268.63" y="282.82" width="5.72" height="5.72"/><rect x="263.07" y="282.82" width="5.72" height="5.72"/><rect x="263.07" y="288.38" width="5.72" height="5.72"/><rect x="263.07" y="293.94" width="5.72" height="5.72"/><rect x="274.5" y="299.5" width="5.72" height="5.72"/><rect x="279.75" y="305.06" width="5.72" height="5.72"/><rect x="263.07" y="299.5" width="5.72" height="5.72"/><rect x="263.07" y="305.06" width="5.72" height="5.72"/><rect x="263.07" y="310.62" width="5.72" height="5.72"/><rect x="263.07" y="316.18" width="5.72" height="5.72"/><rect x="263.07" y="321.74" width="5.72" height="5.72"/><rect x="257.51" y="321.74" width="5.72" height="5.72"/><rect x="257.51" y="327.3" width="5.72" height="5.72"/><rect x="257.51" y="332.86" width="5.72" height="5.72"/><rect x="257.51" y="338.42" width="5.72" height="5.72"/><rect x="263.07" y="338.42" width="5.72" height="5.72"/><rect x="268.63" y="338.42" width="5.72" height="5.72"/><rect x="274.19" y="338.42" width="5.72" height="5.72"/><rect x="279.75" y="338.42" width="5.72" height="5.72"/><rect x="279.75" y="332.86" width="5.72" height="5.72"/><rect x="279.75" y="327.3" width="5.72" height="5.72"/><rect x="279.75" y="321.74" width="5.72" height="5.72"/><rect x="279.75" y="316.18" width="5.72" height="5.72"/><rect x="279.75" y="310.62" width="5.72" height="5.72"/><rect x="285.31" y="310.62" width="5.72" height="5.72"/><rect x="290.87" y="310.62" width="5.72" height="5.72"/><rect x="296.43" y="310.62" width="5.72" height="5.72"/><rect x="301.99" y="310.62" width="5.72" height="5.72"/><rect x="307.55" y="310.62" width="5.72" height="5.72"/><rect x="307.55" y="305.06" width="5.72" height="5.72"/><rect x="307.55" y="299.5" width="5.72" height="5.72"/><rect x="301.99" y="293.63" width="5.72" height="5.72"/><rect x="307.55" y="316.18" width="5.72" height="5.72"/><rect x="307.55" y="321.74" width="5.72" height="5.72"/><rect x="301.99" y="321.74" width="5.72" height="5.72"/><rect x="301.99" y="327.3" width="5.72" height="5.72"/><rect x="301.99" y="332.86" width="5.72" height="5.72"/><rect x="301.99" y="338.42" width="5.72" height="5.72"/><rect x="307.55" y="338.42" width="5.72" height="5.72"/><rect x="313.11" y="338.42" width="5.72" height="5.72"/><rect x="318.67" y="338.42" width="5.72" height="5.72"/><rect x="324.23" y="338.42" width="5.72" height="5.72"/><rect x="324.23" y="332.86" width="5.72" height="5.72"/><rect x="324.23" y="327.3" width="5.72" height="5.72"/><rect x="324.23" y="321.74" width="5.72" height="5.72"/><rect x="324.23" y="316.18" width="5.72" height="5.72"/><rect x="324.23" y="310.62" width="5.72" height="5.72"/><rect x="329.93" y="302.48" width="5.72" height="5.72"/><rect x="324.23" y="305.06" width="5.72" height="5.72"/><rect x="324.23" y="299.5" width="5.72" height="5.72"/><rect x="324.23" y="293.99" width="5.72" height="5.72"/><rect x="329.93" y="288.38" width="5.72" height="5.72"/><rect x="335.65" y="296.85" width="5.72" height="5.72"/><rect x="341.37" y="296.85" width="5.72" height="5.72"/><rect x="352.8" y="296.85" width="5.72" height="5.72"/><rect x="347.08" y="296.85" width="5.72" height="5.72"/><rect x="358.52" y="302.46" width="5.72" height="5.72"/><rect x="364.24" y="308.18" width="5.72" height="5.72"/><rect x="364.24" y="313.9" width="5.72" height="5.72"/><rect x="364.24" y="319.62" width="5.72" height="5.72"/><rect x="358.52" y="325.34" width="5.72" height="5.72"/><rect x="358.52" y="331.06" width="5.72" height="5.72"/><rect x="358.52" y="336.77" width="5.72" height="5.72"/><rect x="363.15" y="336.77" width="5.72" height="5.72"/><rect x="368.87" y="336.77" width="5.72" height="5.72"/><rect x="374.59" y="336.77" width="5.72" height="5.72"/><rect x="374.59" y="331.06" width="5.72" height="5.72"/><rect x="374.59" y="325.34" width="5.72" height="5.72"/><rect x="374.59" y="319.62" width="5.72" height="5.72"/><rect x="374.59" y="313.9" width="5.72" height="5.72"/><rect x="374.59" y="308.18" width="5.72" height="5.72"/><rect x="374.59" y="302.46" width="5.72" height="5.72"/><rect x="374.59" y="296.74" width="5.72" height="5.72"/><rect x="368.87" y="291.02" width="5.72" height="5.72"/><rect x="368.87" y="285.3" width="5.72" height="5.72"/><rect x="368.87" y="279.58" width="5.72" height="5.72"/><rect x="363.15" y="273.86" width="5.72" height="5.72"/><rect x="363.15" y="268.3" width="5.72" height="5.72"/><rect x="363.15" y="262.74" width="5.72" height="5.72"/><rect x="363.15" y="257.18" width="5.72" height="5.72"/><rect x="363.15" y="251.62" width="5.72" height="5.72"/><rect x="363.15" y="246.06" width="5.72" height="5.72"/><rect x="369.02" y="239.26" width="5.72" height="5.72"/><rect x="374.58" y="233.4" width="5.72" height="5.72"/><rect x="374.58" y="227.84" width="5.72" height="5.72"/><rect x="374.58" y="222.28" width="5.72" height="5.72"/><rect x="368.71" y="216.56" width="5.72" height="5.72"/><rect x="362.99" y="210.84" width="5.72" height="5.72"/><rect x="357.27" y="210.84" width="5.72" height="5.72"/><rect x="351.55" y="210.84" width="5.72" height="5.72"/><rect x="351.55" y="216.56" width="5.72" height="5.72"/><rect x="357.27" y="221.98" width="5.72" height="5.72"/><rect x="362.38" y="227.37" width="5.72" height="5.72"/><rect x="356.66" y="232.47" width="5.72" height="5.72"/><rect x="351.1" y="232.47" width="5.72" height="5.72"/><rect x="345.54" y="232.47" width="5.72" height="5.72"/><rect x="342.46" y="232.47" width="5.72" height="5.72"/><rect x="268.31" y="248.68" width="5.72" height="5.72"/><rect x="274.03" y="254.4" width="5.72" height="5.72"/><rect x="279.75" y="260.12" width="5.72" height="5.72"/><rect x="285.47" y="260.12" width="5.72" height="5.72"/><rect x="293.65" y="254.88" width="5.72" height="5.72"/><rect x="289.02" y="254.88" width="5.72" height="5.72"/><polygon class="cls-4" points="253.6 232.47 260.14 232.47 260.14 227.07 264.78 227.07 264.78 198.57 274.19 198.57 274.19 194.82 287.47 194.82 287.47 200.52 279.91 200.52 279.91 211.15 274.35 211.15 274.35 222.28 279.75 222.28 279.75 233.4 285.31 233.4 285.31 239.26 290.33 239.26 290.33 250.64 299.19 250.64 299.19 255.96 291.18 255.96 291.18 260.12 279.75 260.12 279.75 254.4 274.03 254.4 274.03 249.15 268.63 249.15 268.63 243.59 271.57 243.59 271.57 232.47 260.29 232.47 260.29 243.75 263.07 243.75 263.07 254.71 257.51 254.71 257.51 249.23 253.6 249.23 253.6 232.47"/></g><g id="Layer_22" data-name="Layer 22"><text class="cls-5" transform="translate(395.33 184.22)">WEB DESIGN<tspan x="0" y="131.08">&amp; DEVE</tspan><tspan class="cls-6" x="230.26" y="131.08">L</tspan><tspan x="261.28" y="131.08">OP</tspan><tspan class="cls-7" x="347.58" y="131.08">M</tspan><tspan x="399.9" y="131.08">E</tspan><tspan class="cls-8" x="434.85" y="131.08">N</tspan><tspan x="482.92" y="131.08">T</tspan></text></g></svg>